<?xml version="1.0" encoding="UTF-8" standalone="no"?>
<!-- Created with Inkscape (http://www.inkscape.org/) -->

<svg
   width="600"
   height="600"
   viewBox="0 0 158.75 158.75"
   version="1.1"
   id="svg1"
   xml:space="preserve"
   inkscape:version="1.3.2 (091e20e, 2023-11-25, custom)"
   sodipodi:docname="logo design.svg"
   xmlns:inkscape="http://www.inkscape.org/namespaces/inkscape"
   xmlns:sodipodi="http://sodipodi.sourceforge.net/DTD/sodipodi-0.dtd"
   xmlns:xlink="http://www.w3.org/1999/xlink"
   xmlns="http://www.w3.org/2000/svg"
   xmlns:svg="http://www.w3.org/2000/svg"><sodipodi:namedview
     id="namedview1"
     pagecolor="#000000"
     bordercolor="#000000"
     borderopacity="0.25"
     inkscape:showpageshadow="2"
     inkscape:pageopacity="0.0"
     inkscape:pagecheckerboard="0"
     inkscape:deskcolor="#d1d1d1"
     inkscape:document-units="px"
     inkscape:zoom="0.97890836"
     inkscape:cx="500.55758"
     inkscape:cy="538.86556"
     inkscape:window-width="1920"
     inkscape:window-height="1051"
     inkscape:window-x="-9"
     inkscape:window-y="-9"
     inkscape:window-maximized="1"
     inkscape:current-layer="layer1" /><defs
     id="defs1"><linearGradient
       id="linearGradient13"
       inkscape:collect="always"><stop
         style="stop-color:#9e35ae;stop-opacity:1;"
         offset="0"
         id="stop14" /><stop
         style="stop-color:#3838b1;stop-opacity:1;"
         offset="1"
         id="stop15" /></linearGradient><linearGradient
       id="linearGradient11"
       inkscape:collect="always"><stop
         style="stop-color:#a230af;stop-opacity:1;"
         offset="0"
         id="stop11" /><stop
         style="stop-color:#392eb4;stop-opacity:1;"
         offset="1"
         id="stop12" /></linearGradient><linearGradient
       id="linearGradient2"
       inkscape:collect="always"><stop
         style="stop-color:#c230ad;stop-opacity:1;"
         offset="0"
         id="stop2" /><stop
         style="stop-color:#312eb4;stop-opacity:1;"
         offset="1"
         id="stop3" /></linearGradient><linearGradient
       inkscape:collect="always"
       xlink:href="#linearGradient2"
       id="linearGradient3"
       x1="85.031845"
       y1="175.79691"
       x2="145.85008"
       y2="185.58926"
       gradientUnits="userSpaceOnUse"
       gradientTransform="rotate(-9.1467038,-569.19391,394.71707)" /><linearGradient
       inkscape:collect="always"
       xlink:href="#linearGradient11"
       id="linearGradient12"
       x1="151.42921"
       y1="97.767021"
       x2="255.08275"
       y2="-2.8764973"
       gradientUnits="userSpaceOnUse"
       gradientTransform="rotate(45,83.991398,-79.116963)" /><linearGradient
       inkscape:collect="always"
       xlink:href="#linearGradient13"
       id="linearGradient15"
       x1="59.523659"
       y1="152.37364"
       x2="161.11581"
       y2="152.37364"
       gradientUnits="userSpaceOnUse"
       gradientTransform="translate(-31.34363,-82.563709)" /></defs><g
     inkscape:label="Layer 1"
     inkscape:groupmode="layer"
     id="layer1"><path
       id="rect8"
       style="opacity:1;fill:url(#linearGradient12);stroke-width:0.79375;stroke-linecap:round;stroke-linejoin:round;paint-order:stroke fill markers"
       d="m 27.769041,55.880039 -18.153418,0.12867 c -4.5890276,-0.31438 -3.3750292,1.89812 -0.106969,5.00538 l 55.950595,55.950591 13.371792,13.3718 13.371794,-13.3718 h 5.13e-4 L 148.15343,61.014089 c 3.26806,-3.10725 4.48257,-5.31976 -0.10646,-5.00538 l -18.15393,-0.12867 c -1.84256,0 -2.56515,0.65306 -3.17449,1.28054 L 78.831555,103.91018 30.944038,57.160579 c -0.609328,-0.62748 -1.332444,-1.28055 -3.174997,-1.28054 z" /><path
       id="path10"
       style="opacity:1;fill:url(#linearGradient15);stroke-width:0.79375;stroke-linecap:round;stroke-linejoin:round;paint-order:stroke fill markers"
       d="m 108.60442,43.221889 c -1.84256,0 -2.56568,0.65255 -3.175,1.28003 L 78.67808,70.101389 52.522568,44.725159 c -0.609334,-0.62748 -1.33193,-1.28055 -3.174484,-1.28054 l -18.15393,0.12867 c -4.589032,-0.31438 -3.374517,1.89812 -0.106453,5.00538 l 47.539219,47.8193 13.26482,-13.26534 34.97306,-34.77668 c 3.26807,-3.10726 4.48206,-5.32028 -0.10697,-5.0059 z" /><path
       id="path1"
       style="opacity:1;fill:url(#linearGradient3);fill-opacity:1;stroke:#000000;stroke-width:1.71979167;stroke-linecap:round;stroke-linejoin:round;stroke-dasharray:none;stroke-opacity:1;paint-order:stroke fill markers"
       d="m 100.19273,38.808749 c -0.49916,-0.002 -1.09015,0.0607 -1.78852,0.19533 l -33.920921,7.29775 c -2.692736,0.72151 -2.702679,2.23667 -2.70268,3.64887 l 1e-6,27.35337 a 10.879531,12.838494 80.853296 0 0 -6.493658,-0.42374 10.879531,12.838494 80.853296 0 0 -10.946102,12.78216 10.879531,12.838494 80.853296 0 0 14.404805,8.70024 10.879531,12.838494 80.853296 0 0 11.045315,-10.74456 l 0.0305,0.0372 v -33.24501 c 0,-1.03742 0.39418,-1.32884 1.48673,-1.6216 l 21.89272,-4.59507 c 1.47653,-0.5761 1.89239,-0.16807 1.89239,1.8247 l 0.0636,20.57394 a 10.879531,12.838494 80.853296 0 0 -6.89519,-0.53692 10.879531,12.838494 80.853296 0 0 -10.9461,12.78216 10.879531,12.838494 80.853296 0 0 14.40481,8.70025 10.879531,12.838494 80.853296 0 0 11.05462,-11.00244 l 0.0212,0.0248 v -38.65035 c 0,-1.86497 -0.4404,-3.09188 -2.60345,-3.1011 z" /></g></svg>
